<svg width="27" height="28" viewBox="0 0 27 28" fill="none" xmlns="http://www.w3.org/2000/svg">
<g clip-path="url(#clip0_43_3)">
<path d="M26.5961 17.2647C24.7924 24.5007 17.4612 28.8993 10.2355 27.0955C2.99931 25.2918 -1.39937 17.9609 0.404458 10.7353C2.20818 3.49931 9.52877 -0.899373 16.765 0.904459C23.9906 2.69764 28.4 10.0286 26.5961 17.2647Z" fill="url(#paint0_linear_43_3)"/>
<path d="M19.9278 12.3178C20.1915 10.5248 18.831 9.55449 16.9536 8.91113L17.5653 6.4748L16.0888 6.10566L15.4981 8.4787C15.1079 8.38378 14.7071 8.28886 14.3063 8.20449L14.897 5.82089L13.4204 5.45175L12.8192 7.87753C12.4923 7.8037 12.1759 7.72988 11.87 7.65605V7.6455L9.82393 7.13925L9.43369 8.72128C9.43369 8.72128 10.5306 8.97441 10.5095 8.98495C11.1106 9.13261 11.2161 9.53339 11.195 9.8498L10.4989 12.6236C10.5411 12.6342 10.5938 12.6447 10.6571 12.6764C10.6044 12.6658 10.5517 12.6553 10.4989 12.6342L9.52861 16.5154C9.45479 16.6947 9.26494 16.9689 8.85361 16.8635C8.86416 16.8846 7.77783 16.5998 7.77783 16.5998L7.03955 18.2978L8.96963 18.783C9.32822 18.8779 9.67627 18.9623 10.0243 19.0572L9.4126 21.5146L10.8892 21.8838L11.5009 19.4475C11.9017 19.5529 12.3024 19.6584 12.6821 19.7533L12.081 22.1791L13.5575 22.5482L14.1692 20.0908C16.7005 20.5654 18.5989 20.3756 19.3899 18.0869C20.0333 16.2518 19.3583 15.1865 18.0294 14.4904C19.0103 14.2689 19.738 13.6256 19.9278 12.3178ZM16.5423 17.0639C16.0888 18.899 12.988 17.9076 11.986 17.6545L12.7981 14.3955C13.8001 14.6486 17.0274 15.1443 16.5423 17.0639ZM17.0063 12.2861C16.5845 13.9631 14.011 13.1088 13.1778 12.8978L13.9161 9.94472C14.7493 10.1557 17.4388 10.5459 17.0063 12.2861Z" fill="white"/>
</g>
<defs>
<linearGradient id="paint0_linear_43_3" x1="1349.27" y1="-0.147999" x2="1349.27" y2="2700.23" gradientUnits="userSpaceOnUse">
<stop stop-color="#F9AA4B"/>
<stop offset="1" stop-color="#F7931A"/>
</linearGradient>
<clipPath id="clip0_43_3">
<rect width="27" height="27" fill="white" transform="translate(0 0.5)"/>
</clipPath>
</defs>
</svg>
