<svg width="35" height="35" viewBox="0 0 35 35" fill="none" xmlns="http://www.w3.org/2000/svg">
<path d="M13.125 20.4167C13.125 22.8331 17.0421 24.7917 21.875 24.7917C26.7079 24.7917 30.625 22.8331 30.625 20.4167C30.625 18.0002 26.7079 16.0417 21.875 16.0417C17.0421 16.0417 13.125 18.0002 13.125 20.4167Z" stroke="#0069FF" stroke-width="2.91667" stroke-linecap="round" stroke-linejoin="round"/>
<path d="M13.125 20.4167V26.25C13.125 28.665 17.0421 30.625 21.875 30.625C26.7079 30.625 30.625 28.665 30.625 26.25V20.4167M4.375 8.75C4.375 10.3133 6.04333 11.7571 8.75 12.5387C11.4567 13.3204 14.7933 13.3204 17.5 12.5387C20.2067 11.7571 21.875 10.3133 21.875 8.75C21.875 7.18667 20.2067 5.74292 17.5 4.96125C14.7933 4.17958 11.4567 4.17958 8.75 4.96125C6.04333 5.74292 4.375 7.18667 4.375 8.75Z" stroke="#0069FF" stroke-width="2.91667" stroke-linecap="round" stroke-linejoin="round"/>
<path d="M4.375 8.75V23.3333C4.375 24.6283 5.50083 25.4479 7.29167 26.25" stroke="#0069FF" stroke-width="2.91667" stroke-linecap="round" stroke-linejoin="round"/>
<path d="M4.375 16.0417C4.375 17.3367 5.50083 18.1562 7.29167 18.9583" stroke="#0069FF" stroke-width="2.91667" stroke-linecap="round" stroke-linejoin="round"/>
</svg>
