<svg width="31" height="30" viewBox="0 0 31 30" fill="none" xmlns="http://www.w3.org/2000/svg">
<g clip-path="url(#clip0_3_258)">
<path d="M0.5 2.14875C0.5 0.961875 1.48625 0 2.70312 0H28.2969C29.5138 0 30.5 0.961875 30.5 2.14875V27.8512C30.5 29.0381 29.5138 30 28.2969 30H2.70312C1.48625 30 0.5 29.0381 0.5 27.8512V2.14875ZM9.76812 25.1138V11.5669H5.26625V25.1138H9.76812ZM7.51813 9.71625C9.0875 9.71625 10.0644 8.6775 10.0644 7.37625C10.0363 6.04688 9.08938 5.03625 7.54813 5.03625C6.00688 5.03625 5 6.04875 5 7.37625C5 8.6775 5.97687 9.71625 7.48812 9.71625H7.51813ZM16.7206 25.1138V17.5481C16.7206 17.1431 16.7506 16.7381 16.8706 16.4494C17.195 15.6412 17.9356 14.8031 19.1806 14.8031C20.81 14.8031 21.4606 16.0444 21.4606 17.8669V25.1138H25.9625V17.3438C25.9625 13.1812 23.7425 11.2463 20.78 11.2463C18.3913 11.2463 17.3206 12.5588 16.7206 13.4831V13.53H16.6906C16.7006 13.5143 16.7106 13.4987 16.7206 13.4831V11.5669H12.2206C12.2769 12.8381 12.2206 25.1138 12.2206 25.1138H16.7206Z" fill="#8B919B"/>
</g>
<defs>
<clipPath id="clip0_3_258">
<rect width="30" height="30" fill="white" transform="translate(0.5)"/>
</clipPath>
</defs>
</svg>
