<svg width="31" height="30" viewBox="0 0 31 30" fill="none" xmlns="http://www.w3.org/2000/svg">
<g clip-path="url(#clip0_3_253)">
<path d="M9.935 26.7863C21.2544 26.7863 27.4475 17.7169 27.4475 9.85125C27.4475 9.59438 27.4475 9.3375 27.4288 9.0825C28.6276 8.24569 29.6676 7.20186 30.5 6C29.375 6.48 28.1844 6.79688 26.9656 6.9375C28.2396 6.20665 29.202 5.03482 29.6712 3.64313C28.4619 4.33688 27.14 4.82438 25.7619 5.08688C24.8222 4.12741 23.5976 3.49735 22.2706 3.29063C20.9359 3.07829 19.5682 3.29769 18.3669 3.91688C17.1825 4.52488 16.232 5.50698 15.6631 6.71063C15.1044 7.8982 14.9668 9.24067 15.2731 10.5169C12.8327 10.3996 10.442 9.78515 8.2475 8.71125C6.07472 7.64971 4.14738 6.14642 2.58875 4.2975C1.80243 5.59889 1.55995 7.15749 1.91375 8.63625C2.26813 10.1119 3.18875 11.4019 4.49375 12.2438C3.51708 12.2161 2.56038 11.9605 1.7 11.4975V11.5725C1.7 12.9488 2.19313 14.28 3.09313 15.3413C4.00506 16.4129 5.25504 17.1418 6.63688 17.4075C5.73125 17.6475 4.78062 17.6813 3.85812 17.5106C4.25929 18.7019 5.02556 19.7365 6.04813 20.4675C7.08869 21.212 8.3313 21.6221 9.61063 21.6431C7.00739 23.6135 3.74195 24.4986 0.5 24.1125C3.33457 25.8645 6.6027 26.7887 9.935 26.7806" fill="#8B919B"/>
</g>
<defs>
<clipPath id="clip0_3_253">
<rect width="30" height="30" fill="white" transform="translate(0.5)"/>
</clipPath>
</defs>
</svg>
